# xmcd CD database file
#
# Track frame offsets:
#	150
#	16622
#	33479
#	46571
#	61562
#	77472
#	90122
#	106143
#	122506
#	141508
#	159145
#	172085
#	189483
#	205521
#	223618
#	237616
#	248895
#	266569
#	281226
#	295413
#	308940
#
# Disc length: 4327 seconds
#
# Revision: 0
# Processed by: cddbd v1.5.2PL0 Copyright (c) Steve Scherf et al.
# Submitted via: CDex 2.10
#
DISCID=1710e515
DTITLE=Various Artist - Hott Country 9
DYEAR=1999
DGENRE=Country
TTITLE0=Tracy Byrd - Big Love
TTITLE1=Brooks and Dunn - Mama Don`t Get Dressed Up For Nothing
TTITLE2=Clay Walker - Bury The Shovel
TTITLE3=Suzy Bogguss - No Way Out
TTITLE4=Paririe Oyster - Unbelieable Love
TTITLE5=John Michael Montgomery - Ain`t Got Nothin` On Us
TTITLE6=Clint Black - Like The Rain
TTITLE7=Duane Steele - The Trouble With Love
TTITLE8=Geroge Strait - I Can Still Make Cheyenne
TTITLE9=Pam Tillis - Betty`s Got A Bass Boat
TTITLE10=Mary-Chapin Carenter - Let Me Into Your Heart
TTITLE11=Rhett Akins - Love You Back
TTITLE12=Lonstar - When Cowboys Didn`t Dance
TTITLE13=Charlie Major - Waitin` On You
TTITLE14=Wade Hayes - Where Do I Go To Start All Over
TTITLE15=BR5-49 - Cherokee Boogie
TTITLE16=Brady Seals - Another You, Another Me
TTITLE17=Neal McCoy - Going, Going, Gone
TTITLE18=Trace Adkins - Ever Light Un The House Is On
TTITLE19=Kevin Sharp - Nobody Knows
TTITLE20=Kevin Sharpe - Nobody Knows It But Me
EXTD=YEAR: 1999
EXTT0=
EXTT1=
EXTT2=
EXTT3=
EXTT4=
EXTT5=
EXTT6=
EXTT7=
EXTT8=
EXTT9=
EXTT10=
EXTT11=
EXTT12=
EXTT13=
EXTT14=
EXTT15=
EXTT16=
EXTT17=
EXTT18=
EXTT19=
EXTT20=
PLAYORDER=
